<svg width="20" height="13" viewBox="0 0 20 13" fill="none" xmlns="http://www.w3.org/2000/svg">
<path d="M10 12.5C5.73213 12.5 2.10342 10.0236 0.544147 6.5C2.10342 2.97641 5.73213 0.5 10 0.5C14.2679 0.5 17.8966 2.97642 19.4559 6.5C17.8966 10.0236 14.2679 12.5 10 12.5ZM4.95536 6.5C4.95536 9.18294 7.24642 11.3348 10 11.3348C12.7536 11.3348 15.0446 9.18294 15.0446 6.5C15.0446 3.81706 12.7536 1.66523 10 1.66523C7.24642 1.66523 4.95536 3.81706 4.95536 6.5ZM7.77232 6.5C7.77232 5.36924 8.75337 4.4 10 4.4C11.2466 4.4 12.2277 5.36924 12.2277 6.5C12.2277 7.63076 11.2466 8.6 10 8.6C8.75337 8.6 7.77232 7.63076 7.77232 6.5Z" fill="#6F8CC2" stroke="#6F8CC2"/>
</svg>
